<svg width="204" height="67" viewBox="0 0 204 67" fill="none" xmlns="http://www.w3.org/2000/svg">
<path d="M0.895 0.499995H28.54V10H11.345V28.525H24.835V38.025H11.345V67H0.895V0.499995ZM33.5513 0.499995H49.0363C54.4196 0.499995 58.3463 1.76666 60.8163 4.3C63.2863 6.77 64.5213 10.6017 64.5213 15.795V19.88C64.5213 26.7833 62.2413 31.1533 57.6813 32.99V33.18C60.2146 33.94 61.9879 35.4917 63.0013 37.835C64.0779 40.1783 64.6163 43.3133 64.6163 47.24V58.925C64.6163 60.825 64.6796 62.3767 64.8063 63.58C64.9329 64.72 65.2496 65.86 65.7563 67H55.1163C54.7363 65.9233 54.4829 64.91 54.3563 63.96C54.2296 63.01 54.1663 61.3 54.1663 58.83V46.67C54.1663 43.63 53.6596 41.5083 52.6463 40.305C51.6963 39.1017 50.0179 38.5 47.6113 38.5H44.0013V67H33.5513V0.499995ZM47.8013 29C49.8913 29 51.4429 28.4617 52.4563 27.385C53.5329 26.3083 54.0712 24.5033 54.0712 21.97V16.84C54.0712 14.4333 53.6279 12.6917 52.7413 11.615C51.9179 10.5383 50.5879 10 48.7513 10H44.0013V29H47.8013ZM71.8667 0.499995H100.367V10H82.3167V27.575H96.6617V37.075H82.3167V57.5H100.367V67H71.8667V0.499995ZM106.378 0.499995H134.878V10H116.828V27.575H131.173V37.075H116.828V57.5H134.878V67H106.378V0.499995ZM138.986 57.69L158.366 10H139.936V0.499995H169.576V9.80999L150.196 57.5H169.576V67H138.986V57.69ZM175.495 0.499995H203.995V10H185.945V27.575H200.29V37.075H185.945V57.5H203.995V67H175.495V0.499995Z" fill="white"/>
</svg>
