<svg width="65" height="65" viewBox="0 0 65 65" fill="none" xmlns="http://www.w3.org/2000/svg">
<path d="M51.8578 14.2188H14.4487L11.2524 8.48954C10.8936 7.84646 10.2149 7.44792 9.47852 7.44792H5.41602C4.29419 7.44792 3.38477 8.35734 3.38477 9.47917C3.38477 10.601 4.29419 11.5104 5.41602 11.5104H8.28576L11.4401 17.1645L18.7149 33.2607L18.7224 33.2772L19.3631 34.6949L12.0592 42.4858C11.534 43.0459 11.3696 43.8544 11.6343 44.5752C11.899 45.296 12.5475 45.8059 13.3104 45.8931L19.9679 46.654C28.2951 47.6057 36.7037 47.6057 45.0309 46.654L51.6884 45.8931C52.8029 45.7657 53.6032 44.7589 53.4758 43.6444C53.3485 42.5298 52.3417 41.7295 51.2271 41.8569L44.5696 42.6177C36.5489 43.5344 28.4499 43.5344 20.4292 42.6177L17.7871 42.3158L23.1479 36.5976C23.1998 36.5423 23.248 36.4848 23.2924 36.4256L25.3313 36.6909C28.1884 37.0626 31.0764 37.1355 33.9486 36.9083C40.6476 36.3785 46.8563 33.1909 51.1908 28.0558L52.7564 26.2011C52.809 26.1388 52.8578 26.0734 52.9025 26.0053L55.8204 21.5586C57.8886 18.4067 55.6276 14.2188 51.8578 14.2188Z" fill="white"/>
<path d="M17.6035 50.1042C15.3599 50.1042 13.541 51.923 13.541 54.1667C13.541 56.4103 15.3599 58.2292 17.6035 58.2292C19.8472 58.2292 21.666 56.4103 21.666 54.1667C21.666 51.923 19.8472 50.1042 17.6035 50.1042Z" fill="white"/>
<path d="M43.3327 54.1667C43.3327 51.923 45.1515 50.1042 47.3952 50.1042C49.6388 50.1042 51.4577 51.923 51.4577 54.1667C51.4577 56.4103 49.6388 58.2292 47.3952 58.2292C45.1515 58.2292 43.3327 56.4103 43.3327 54.1667Z" fill="white"/>
</svg>
