<svg width="65" height="65" viewBox="0 0 65 65" fill="none" xmlns="http://www.w3.org/2000/svg">
<path d="M32.4994 10.1562C26.8902 10.1562 22.3431 14.7034 22.3431 20.3125C22.3431 25.9216 26.8902 30.4688 32.4994 30.4688C38.1085 30.4688 42.6556 25.9216 42.6556 20.3125C42.6556 14.7034 38.1085 10.1562 32.4994 10.1562Z" fill="white"/>
<path d="M21.666 35.8854C16.0569 35.8854 11.5098 40.4325 11.5098 46.0417V49.2599C11.5098 51.2999 12.9882 53.0393 15.0015 53.368C26.59 55.26 38.4087 55.26 49.9972 53.368C52.0105 53.0393 53.4889 51.2999 53.4889 49.2599V46.0417C53.4889 40.4325 48.9418 35.8854 43.3327 35.8854H42.4095C41.9098 35.8854 41.4133 35.9644 40.9383 36.1195L38.5942 36.8849C34.6339 38.1781 30.3648 38.1781 26.4045 36.8849L24.0604 36.1195C23.5854 35.9644 23.0889 35.8854 22.5892 35.8854H21.666Z" fill="white"/>
</svg>
